<svg xmlns="http://www.w3.org/2000/svg" width="81" height="81" viewBox="0 0 81 81">
  <path id="ic_content_cut_24px" d="M32.942,24.842A15.782,15.782,0,0,0,34.4,18.2,16.2,16.2,0,1,0,18.2,34.4a15.782,15.782,0,0,0,6.642-1.458L34.4,42.5l-9.558,9.558A15.782,15.782,0,0,0,18.2,50.6,16.2,16.2,0,1,0,34.4,66.8a15.782,15.782,0,0,0-1.458-6.642L42.5,50.6,70.85,78.95H83V74.9ZM18.2,26.3a8.1,8.1,0,1,1,8.1-8.1A8.1,8.1,0,0,1,18.2,26.3Zm0,48.6a8.1,8.1,0,1,1,8.1-8.1A8.1,8.1,0,0,1,18.2,74.9ZM42.5,44.525A2.025,2.025,0,1,1,44.525,42.5,2.005,2.005,0,0,1,42.5,44.525ZM70.85,6.05l-24.3,24.3,8.1,8.1L83,10.1V6.05Z" transform="translate(-2 -2)" fill="#5729D9"/>
</svg>
